<svg xmlns="http://www.w3.org/2000/svg" viewBox="0 0 800 600" fill="none">
  <rect width="800" height="600" rx="16" fill="#0d1b1e"/>
  <rect x="0" y="0" width="800" height="600" rx="16" fill="url(#bg)" opacity="0.3"/>
  <defs>
    <radialGradient id="bg" cx="40%" cy="30%" r="60%">
      <stop offset="0%" stop-color="#1a3c42"/>
      <stop offset="100%" stop-color="#0d1b1e"/>
    </radialGradient>
    <linearGradient id="bar" x1="0" y1="0" x2="1" y2="0">
      <stop offset="0%" stop-color="#2dd4bf"/>
      <stop offset="100%" stop-color="#14b8a6"/>
    </linearGradient>
  </defs>

  <!-- Sidebar -->
  <rect x="20" y="20" width="180" height="560" rx="12" fill="#132428" stroke="#1e3a3f" stroke-width="1"/>
  <rect x="40" y="40" width="140" height="32" rx="8" fill="#1e3a3f"/>
  <circle cx="60" cy="56" r="6" fill="#2dd4bf"/>
  <rect x="74" y="50" width="60" height="6" rx="3" fill="#2dd4bf" opacity="0.7"/>
  <rect x="74" y="60" width="40" height="4" rx="2" fill="#1e3a3f"/>

  <!-- Sidebar menu items -->
  <rect x="40" y="100" width="140" height="36" rx="8" fill="#1e3a3f" opacity="0.5"/>
  <rect x="40" y="148" width="140" height="36" rx="8" fill="#1e3a3f" opacity="0.5"/>
  <rect x="40" y="196" width="140" height="36" rx="8" fill="#2dd4bf" opacity="0.15"/>
  <rect x="40" y="244" width="140" height="36" rx="8" fill="#1e3a3f" opacity="0.5"/>
  <rect x="40" y="292" width="140" height="36" rx="8" fill="#1e3a3f" opacity="0.5"/>

  <!-- Header -->
  <rect x="220" y="20" width="560" height="48" rx="12" fill="#132428" stroke="#1e3a3f" stroke-width="1"/>
  <circle cx="248" cy="44" r="12" fill="#1e3a3f"/>
  <circle cx="248" cy="44" r="4" fill="#2dd4bf"/>
  <rect x="270" y="38" width="120" height="6" rx="3" fill="#1e3a3f"/>
  <rect x="270" y="48" width="80" height="4" rx="2" fill="#1e3a3f" opacity="0.6"/>
  <circle cx="720" cy="44" r="8" fill="#1e3a3f"/>
  <circle cx="720" cy="44" r="2" fill="#2dd4bf"/>
  <circle cx="748" cy="44" r="8" fill="#1e3a3f"/>
  <circle cx="748" cy="44" r="2" fill="#f59e0b"/>

  <!-- Stats cards row -->
  <rect x="220" y="84" width="130" height="90" rx="12" fill="#132428" stroke="#1e3a3f" stroke-width="1"/>
  <rect x="236" y="100" width="50" height="6" rx="3" fill="#1e3a3f"/>
  <text x="236" y="140" font-family="system-ui" font-size="24" font-weight="700" fill="#fff">1,247</text>
  <rect x="236" y="152" width="80" height="4" rx="2" fill="#2dd4bf" opacity="0.5"/>

  <rect x="362" y="84" width="130" height="90" rx="12" fill="#132428" stroke="#1e3a3f" stroke-width="1"/>
  <rect x="378" y="100" width="50" height="6" rx="3" fill="#1e3a3f"/>
  <text x="378" y="140" font-family="system-ui" font-size="24" font-weight="700" fill="#fff">₿48.2K</text>
  <rect x="378" y="152" width="80" height="4" rx="2" fill="#2dd4bf" opacity="0.5"/>

  <rect x="504" y="84" width="130" height="90" rx="12" fill="#132428" stroke="#1e3a3f" stroke-width="1"/>
  <rect x="520" y="100" width="50" height="6" rx="3" fill="#1e3a3f"/>
  <text x="520" y="140" font-family="system-ui" font-size="24" font-weight="700" fill="#fff">99.9%</text>
  <rect x="520" y="152" width="80" height="4" rx="2" fill="#2dd4bf" opacity="0.5"/>

  <rect x="646" y="84" width="130" height="90" rx="12" fill="#132428" stroke="#1e3a3f" stroke-width="1"/>
  <rect x="662" y="100" width="50" height="6" rx="3" fill="#1e3a3f"/>
  <text x="662" y="140" font-family="system-ui" font-size="24" font-weight="700" fill="#fff">12ms</text>
  <rect x="662" y="152" width="80" height="4" rx="2" fill="#2dd4bf" opacity="0.5"/>

  <!-- Main chart area -->
  <rect x="220" y="190" width="360" height="200" rx="12" fill="#132428" stroke="#1e3a3f" stroke-width="1"/>
  <rect x="236" y="206" width="100" height="6" rx="3" fill="#1e3a3f"/>
  <rect x="236" y="218" width="60" height="4" rx="2" fill="#1e3a3f" opacity="0.6"/>

  <!-- Chart bars -->
  <rect x="250" y="330" width="18" height="60" rx="4" fill="#2dd4bf" opacity="0.6"/>
  <rect x="280" y="300" width="18" height="90" rx="4" fill="#2dd4bf" opacity="0.8"/>
  <rect x="310" y="320" width="18" height="70" rx="4" fill="#2dd4bf" opacity="0.5"/>
  <rect x="340" y="270" width="18" height="120" rx="4" fill="#2dd4bf"/>
  <rect x="370" y="310" width="18" height="80" rx="4" fill="#2dd4bf" opacity="0.7"/>
  <rect x="400" y="290" width="18" height="100" rx="4" fill="#14b8a6"/>
  <rect x="430" y="340" width="18" height="50" rx="4" fill="#2dd4bf" opacity="0.4"/>
  <rect x="460" y="285" width="18" height="105" rx="4" fill="#2dd4bf" opacity="0.75"/>
  <rect x="490" y="325" width="18" height="65" rx="4" fill="#14b8a6" opacity="0.6"/>
  <rect x="520" y="260" width="18" height="130" rx="4" fill="#2dd4bf"/>
  <rect x="550" y="305" width="18" height="85" rx="4" fill="#2dd4bf" opacity="0.65"/>

  <!-- Line overlay on chart -->
  <path d="M260 330 Q295 250 330 280 Q365 210 400 240 Q435 300 470 250 Q505 280 540 200" stroke="#2dd4bf" stroke-width="2" fill="none" opacity="0.5"/>

  <!-- Right panel - branch list -->
  <rect x="594" y="190" width="184" height="200" rx="12" fill="#132428" stroke="#1e3a3f" stroke-width="1"/>
  <rect x="610" y="206" width="80" height="6" rx="3" fill="#1e3a3f"/>
  <rect x="610" y="218" width="50" height="4" rx="2" fill="#1e3a3f" opacity="0.6"/>

  <!-- Branch items -->
  <rect x="610" y="238" width="152" height="28" rx="6" fill="#1e3a3f" opacity="0.5"/>
  <circle cx="622" cy="252" r="5" fill="#2dd4bf"/>
  <rect x="634" y="248" width="60" height="4" rx="2" fill="#fff" opacity="0.8"/>
  <rect x="634" y="256" width="40" height="3" rx="1.5" fill="#1e3a3f"/>

  <rect x="610" y="274" width="152" height="28" rx="6" fill="#1e3a3f" opacity="0.5"/>
  <circle cx="622" cy="288" r="5" fill="#2dd4bf"/>
  <rect x="634" y="284" width="70" height="4" rx="2" fill="#fff" opacity="0.8"/>
  <rect x="634" y="292" width="45" height="3" rx="1.5" fill="#1e3a3f"/>

  <rect x="610" y="310" width="152" height="28" rx="6" fill="#1e3a3f" opacity="0.5"/>
  <circle cx="622" cy="324" r="5" fill="#f59e0b"/>
  <rect x="634" y="320" width="55" height="4" rx="2" fill="#fff" opacity="0.8"/>
  <rect x="634" y="328" width="35" height="3" rx="1.5" fill="#1e3a3f"/>

  <rect x="610" y="346" width="152" height="28" rx="6" fill="#1e3a3f" opacity="0.5"/>
  <circle cx="622" cy="360" r="5" fill="#2dd4bf"/>
  <rect x="634" y="356" width="65" height="4" rx="2" fill="#fff" opacity="0.8"/>
  <rect x="634" y="364" width="40" height="3" rx="1.5" fill="#1e3a3f"/>

  <!-- Bottom table -->
  <rect x="220" y="406" width="558" height="170" rx="12" fill="#132428" stroke="#1e3a3f" stroke-width="1"/>
  <rect x="236" y="422" width="80" height="6" rx="3" fill="#1e3a3f"/>

  <!-- Table header -->
  <rect x="236" y="444" width="100" height="4" rx="2" fill="#1e3a3f" opacity="0.6"/>
  <rect x="370" y="444" width="80" height="4" rx="2" fill="#1e3a3f" opacity="0.6"/>
  <rect x="490" y="444" width="60" height="4" rx="2" fill="#1e3a3f" opacity="0.6"/>
  <rect x="590" y="444" width="70" height="4" rx="2" fill="#1e3a3f" opacity="0.6"/>

  <!-- Table rows -->
  <rect x="236" y="462" width="526" height="24" rx="4" fill="#1e3a3f" opacity="0.3"/>
  <rect x="250" y="468" width="80" height="4" rx="2" fill="#fff" opacity="0.7"/>
  <rect x="370" y="468" width="60" height="4" rx="2" fill="#fff" opacity="0.5"/>
  <rect x="490" y="468" width="40" height="4" rx="2" fill="#2dd4bf" opacity="0.6"/>
  <rect x="590" y="468" width="50" height="4" rx="2" fill="#fff" opacity="0.5"/>

  <rect x="236" y="492" width="526" height="24" rx="4" fill="#1e3a3f" opacity="0.3"/>
  <rect x="250" y="498" width="90" height="4" rx="2" fill="#fff" opacity="0.7"/>
  <rect x="370" y="498" width="55" height="4" rx="2" fill="#fff" opacity="0.5"/>
  <rect x="490" y="498" width="40" height="4" rx="2" fill="#2dd4bf" opacity="0.6"/>
  <rect x="590" y="498" width="45" height="4" rx="2" fill="#fff" opacity="0.5"/>

  <rect x="236" y="522" width="526" height="24" rx="4" fill="#1e3a3f" opacity="0.3"/>
  <rect x="250" y="528" width="75" height="4" rx="2" fill="#fff" opacity="0.7"/>
  <rect x="370" y="528" width="65" height="4" rx="2" fill="#fff" opacity="0.5"/>
  <rect x="490" y="528" width="40" height="4" rx="2" fill="#2dd4bf" opacity="0.6"/>
  <rect x="590" y="528" width="55" height="4" rx="2" fill="#fff" opacity="0.5"/>

  <rect x="236" y="552" width="526" height="16" rx="4" fill="transparent"/>
  <rect x="250" y="556" width="85" height="4" rx="2" fill="#fff" opacity="0.3"/>
  <rect x="370" y="556" width="50" height="4" rx="2" fill="#fff" opacity="0.3"/>
  <rect x="490" y="556" width="40" height="4" rx="2" fill="#2dd4bf" opacity="0.3"/>
  <rect x="590" y="556" width="50" height="4" rx="2" fill="#fff" opacity="0.3"/>
</svg>
